# xmcd
# 
# Track frame offsets:
#     150
#     16442
#     43827
#     74037
#     108437
#     133462
#     152602
#     186545
#     230595
#     254760
#     260315
#     276422
#     279872
#     286635
# 
# Disc length: 3908
# 
# Revision: 1
# Processed by: cddbd v1.5.2PL0 Copyright (c) Steve Scherf et al.
# Submitted via: fre:ac v1.1beta1pre4
# 
DISCID=de0f420e
DTITLE=Shin Tenchi Muyo! - New NoNeed Tenchi
DYEAR=1997
DGENRE=Anime
TTITLE0=Tenchi no Teemu I, II, III
TTITLE1=Yume wa Doko E Itta
TTITLE2='Tenchi na Jin' no Teemu
TTITLE3=Omake Dorama I
TTITLE4=Sakuya no Teemu I, II, III
TTITLE5=Ryoko no Teemu
TTITLE6=Yuugi no Teemu
TTITLE7=Omake Dorama II
TTITLE8=Batoru Akuchon no Teemu
TTITLE9=Boukyou no Teemu
TTITLE10=Yamerarenai Yamerarenai
TTITLE11=Jishuu Yokuku no Teemu
TTITLE12=Yume wa Doko e Itta
TTITLE13=Yamararenai Yamerarenai (TV Size)
EXTD=
EXTT0=
EXTT1=
EXTT2=
EXTT3=
EXTT4=
EXTT5=
EXTT6=
EXTT7=
EXTT8=
EXTT9=
EXTT10=
EXTT11=
EXTT12=
EXTT13=
PLAYORDER=
